<svg xmlns="http://www.w3.org/2000/svg" xmlns:xlink="http://www.w3.org/1999/xlink" width="1920" height="260" viewBox="0 0 1920 260">
  <defs>
    <clipPath id="clip-path">
      <rect id="Rectangle_2253" data-name="Rectangle 2253" width="1920" height="260" transform="translate(-329.5 227)" fill="#18b489"/>
    </clipPath>
  </defs>
  <g id="main-backgr" transform="translate(0 -99)">
    <rect id="Rectangle_1740" data-name="Rectangle 1740" width="1920" height="260" transform="translate(0 99)" fill="#18b489"/>
    <g id="Mask_Group_101" data-name="Mask Group 101" transform="translate(329.5 -128)" clip-path="url(#clip-path)">
      <g id="ხეები" transform="translate(-322.036 124)">
        <g id="Group_533" data-name="Group 533" transform="translate(557.084 339.59)" opacity="0.39">
          <path id="Path_3520" data-name="Path 3520" d="M3646.859,1715.323a3.6,3.6,0,0,0-.233-4.636c-3.115-3.5-11.9.83-18.129,4.636Z" transform="translate(-3600.138 -1691.032)" fill="#f0f7fc"/>
          <path id="Path_3521" data-name="Path 3521" d="M3506.743,1638.072c5.923-6.635,15.306-18.8,9.272-23.492-6.145-4.779-18.553,13.021-24.929,23.2.436-7.954-.183-18.531-6.958-16.121-7.031,2.5-1.218,10.076,2.95,16.409Z" transform="translate(-3480.841 -1613.781)" fill="#f0f7fc"/>
        </g>
        <path id="Path_3522" data-name="Path 3522" d="M805.579,1273.781c-33.312-.761-161.919-43.653-193.611-32.7-31.847,11.01-117.9-43.876-211.41-34.7-10,.981-38.942,17.4-54.634,34.7-19.874,42.9-60.982,61-50.638,73.588H875.568S859.109,1275,805.579,1273.781Z" transform="matrix(1, -0.017, 0.017, 1, -329.063, -936.039)" fill="#f0f7fc" opacity="0.2"/>
        <g id="Group_643" data-name="Group 643" transform="translate(30.446 184)" opacity="0.5">
          <path id="Path_3650" data-name="Path 3650" d="M213.482,251.051c-13.063-5.735-17.529-21.437-13.033-34.606,3.638-10.656,6.343-16.633,5.227-28.342-.824-8.644-1.986-21.755,4.03-29.141,4.666-5.73,12.693-4.629,18.077-1.009,8.361,5.621,8.848,15.327,9.383,24.648.65,11.33.567,18.026,6.441,27.7,4.1,6.751,6.241,13.608,5.06,21.684-2.134,14.578-18.5,24.338-32.437,20.083A24.907,24.907,0,0,1,213.482,251.051Z" transform="translate(-198.751 -154.952)" fill="#0c776f"/>
          <path id="Path_3651" data-name="Path 3651" d="M217.832,232.583c2.311,3.149,3.381,6.718,6.134,9.552.019,2.032-.629,21.42-.695,28.723h6.8c-.239-7.3-3.087-46.338-3.087-46.338-.028-1.247-.044-2.5-.064-3.748,3.872-5.788,8.08-11.919,11.04-18.212.233-.495-.423-1.134-.823-.635a127.4,127.4,0,0,0-10.264,15.73c-.157-13.827.01-27.762-1.116-41.5a.592.592,0,0,0-1.183,0c-.3,6-.354,12.031-.3,18.07-2.47-3.717-4.963-7.65-8.075-10.735a.5.5,0,0,0-.776.6c2.235,4.55,5.847,8.7,8.891,12.757.136,9.24.481,18.49.566,27.679q.07,7.451.138,14.9c-2.112-3.294-4.838-6.38-7.128-9.458-1.789-2.4-4.068-7.04-6.988-8.285-.292-.125-.673.147-.473.459C212.73,225.729,215.308,229.143,217.832,232.583Z" transform="translate(-202.332 -161.304)" fill="#bfe2de"/>
        </g>
        <g id="Group_644" data-name="Group 644" transform="translate(107.159 189.415)" opacity="0.5">
          <path id="Path_3652" data-name="Path 3652" d="M297.886,271.156c-8.84-3.881-11.862-14.507-8.82-23.419,2.462-7.212,4.293-11.256,3.537-19.18-.558-5.85-1.344-14.722,2.728-19.721,3.158-3.877,8.59-3.132,12.234-.682,5.658,3.8,5.987,10.373,6.349,16.68.44,7.668.383,12.2,4.359,18.745,2.775,4.569,4.224,9.209,3.424,14.674-1.444,9.866-12.522,16.47-21.951,13.591A16.946,16.946,0,0,1,297.886,271.156Z" transform="translate(-287.918 -206.122)" fill="#159b9a"/>
          <path id="Path_3653" data-name="Path 3653" d="M300.83,258.658c1.564,2.131,2.288,4.546,4.151,6.464.013,1.375-.426,14.5-.47,19.438h4.6c-.162-4.942-2.089-31.358-2.089-31.358-.019-.844-.03-1.69-.044-2.536a98.372,98.372,0,0,0,7.471-12.325c.157-.335-.286-.768-.557-.43a86.319,86.319,0,0,0-6.945,10.645c-.107-9.357.007-18.788-.756-28.088a.4.4,0,0,0-.8,0c-.2,4.061-.24,8.142-.2,12.229a45.691,45.691,0,0,0-5.466-7.265.336.336,0,0,0-.525.4c1.512,3.078,3.957,5.889,6.016,8.633.091,6.253.326,12.513.383,18.732q.047,5.042.093,10.085c-1.429-2.23-3.274-4.318-4.824-6.4-1.21-1.627-2.753-4.764-4.729-5.607-.2-.084-.455.1-.32.311C297.377,254.019,299.122,256.33,300.83,258.658Z" transform="translate(-290.341 -210.42)" fill="#bfe2de"/>
        </g>
        <g id="Group_645" data-name="Group 645" transform="translate(270.047 179.196)" opacity="0.5">
          <path id="Path_3654" data-name="Path 3654" d="M567.9,286.084c-15.234-6.688-20.441-25-15.2-40.355,4.243-12.427,7.4-19.4,6.1-33.05-.961-10.08-2.316-25.37,4.7-33.983,5.442-6.682,14.8-5.4,21.081-1.177,9.75,6.554,10.318,17.874,10.941,28.743.758,13.214.661,21.021,7.511,32.3,4.781,7.873,7.279,15.869,5.9,25.286-2.489,17-21.578,28.381-37.826,23.421A29.238,29.238,0,0,1,567.9,286.084Z" transform="translate(-550.723 -174.019)" fill="#02625e"/>
          <path id="Path_3655" data-name="Path 3655" d="M572.974,264.548c2.694,3.672,3.943,7.833,7.154,11.139.022,2.369-.734,24.979-.81,33.494h7.931c-.279-8.516-3.6-54.036-3.6-54.036-.033-1.455-.052-2.913-.075-4.37,4.515-6.75,9.422-13.9,12.875-21.238.271-.577-.493-1.322-.96-.741A148.644,148.644,0,0,0,583.52,247.14c-.183-16.124.012-32.374-1.3-48.4a.69.69,0,0,0-1.379,0c-.352,7-.413,14.031-.345,21.072-2.88-4.335-5.787-8.921-9.417-12.519a.578.578,0,0,0-.9.7c2.606,5.306,6.817,10.148,10.367,14.876.159,10.775.561,21.562.661,32.278q.08,8.688.161,17.378c-2.463-3.843-5.642-7.441-8.312-11.029-2.086-2.8-4.744-8.21-8.149-9.662-.341-.145-.786.171-.552.536C567.024,256.554,570.03,260.537,572.974,264.548Z" transform="translate(-554.898 -181.426)" fill="#dff4f1"/>
        </g>
        <path id="Path_3522-2" data-name="Path 3522" d="M589.878,1240.727c-19.276-.393-93.7-22.57-112.034-16.905-18.429,5.692-68.224-22.685-122.334-17.941-5.788.507-22.534,8.995-31.614,17.941-11.5,22.181-35.287,31.54-29.3,38.047H630.378S620.854,1241.36,589.878,1240.727Z" transform="translate(-152.316 -896.585)" fill="#f0f7fc" opacity="0.3"/>
        <path id="Path_3523" data-name="Path 3523" d="M302.5,1666.406s5.005-15.821,28.491-11.545,33.881,1.283,45.432-2.138,16.51-3.593,27.505.983,14.846,13.983,50.653,4.576,52.747-17.1,75.078-9.835,49.843-6.025,77.388,6.414,70.073-9.407,91.633,11.545Z" transform="translate(-141.668 -1300.481)" fill="#fafdff"/>
      </g>
      <g id="line" transform="translate(-319.808 124)">
        <g id="Group_533-2" data-name="Group 533" transform="translate(1828.084 339.59)" opacity="0.39">
          <path id="Path_3520-2" data-name="Path 3520" d="M3646.859,1715.323a3.6,3.6,0,0,0-.233-4.636c-3.115-3.5-11.9.83-18.129,4.636Z" transform="translate(-3600.138 -1691.032)" fill="#f0f7fc"/>
          <path id="Path_3521-2" data-name="Path 3521" d="M3506.743,1638.072c5.923-6.635,15.306-18.8,9.272-23.492-6.145-4.779-18.553,13.021-24.929,23.2.436-7.954-.183-18.531-6.958-16.121-7.031,2.5-1.218,10.076,2.95,16.409Z" transform="translate(-3480.841 -1613.781)" fill="#f0f7fc"/>
        </g>
        <path id="Path_3649" data-name="Path 3649" d="M11374.243,661.014c-43.355,39.969-183.587-13.549-232.362,48.1s-148.573,69.853-148.573,69.853" transform="translate(-9453 -413)" fill="none" stroke="#fafdff" stroke-width="4" opacity="0.5"/>
        <path id="Path_3656" data-name="Path 3656" d="M11374.243,661.014c-43.355,39.969-183.587-13.549-232.362,48.1s-148.573,69.853-148.573,69.853" transform="translate(-9453 -393)" fill="none" stroke="#fafdff" stroke-width="4" opacity="0.4"/>
        <path id="Path_3657" data-name="Path 3657" d="M11374.243,661.014c-43.355,39.969-183.587-13.549-232.362,48.1s-148.573,69.853-148.573,69.853" transform="translate(-9446 -376)" fill="none" stroke="#fafdff" stroke-width="4" opacity="0.3"/>
        <path id="Path_3658" data-name="Path 3658" d="M11374.243,661.014c-43.355,39.969-183.587-13.549-232.362,48.1s-148.573,69.853-148.573,69.853" transform="translate(-9437 -360)" fill="none" stroke="#fafdff" stroke-width="4" opacity="0.2"/>
        <path id="Path_3659" data-name="Path 3659" d="M11374.243,661.014c-43.355,39.969-183.587-13.549-232.362,48.1s-148.573,69.853-148.573,69.853" transform="translate(-9431 -342)" fill="none" stroke="#fafdff" stroke-width="4" opacity="0.1"/>
      </g>
    </g>
    <g id="Group_1237" data-name="Group 1237" transform="translate(969.549 -2.055)">
      <path id="Path_3629" data-name="Path 3629" d="M832.008,278.943s-1.232,32.141,3.562,44.524c4.339,11.207,21.61,34.258,21.61,34.258l-3.731,3.7-4.964,2.722s-16.493-14.571-25.18-33.007c-7.531-15.984-7.865-49.175-7.865-49.175" transform="translate(-26.291 -44.363)" fill="#f0ac75"/>
      <path id="Path_3630" data-name="Path 3630" d="M803.558,293.7s-3.1,18.052-3.919,31.814-1.536,46.177-1.536,46.177l-4.926.345h-5.953s-2.368-28.223-2.368-46.192c0-18.585,5.2-44.925,5.2-44.925" transform="translate(-17.255 -44.948)" fill="#f0ac75"/>
      <g id="Group_641" data-name="Group 641" transform="translate(726.452 128.784)">
        <path id="Path_3631" data-name="Path 3631" d="M849.649,406.636a3.054,3.054,0,0,1-.012-2.021l6.285-9.246c6.006-1.106,11.243-6.521,11.243-6.521l5.255,5.818a.463.463,0,0,1-.145.639l-21.153,13.323C850.7,408.9,849.654,406.659,849.649,406.636Z" transform="translate(-762.797 -205.618)" fill="#576bd8"/>
        <line id="Line_110" data-name="Line 110" x1="21.671" y2="13.649" transform="translate(87.192 188.101)" fill="none" stroke="#1a3987" stroke-linejoin="round" stroke-width="0.75"/>
        <path id="Path_3632" data-name="Path 3632" d="M770.623,412.993a3.049,3.049,0,0,1,1.075-1.71l10.268-4.423c5.66,2.294,12.986.54,12.986.54l1.307,7.731a.464.464,0,0,1-.466.461l-25-.128C770.292,415.463,770.615,413.016,770.623,412.993Z" transform="translate(-739.469 -210.939)" fill="#576bd8"/>
        <path id="Path_3633" data-name="Path 3633" d="M779.125,176.488c-8.182-2.286-17.562-4.816-27.154-14.3s-15.462-16.666-15.462-16.666l-5.064,3.991s11.079,17.51,19.728,23.766c11.367,8.223,18.867,7.861,25.392,9.044" transform="translate(-727.927 -133.73)" fill="#f0ac75"/>
        <path id="Path_3634" data-name="Path 3634" d="M736.221,142.355c-2.02-3.094-3.746-12.471-4.429-12.375s.884,3.2.309,3.174-3.307-4.637-3.963-4.358c-.889.378,2.162,4.951,2.162,4.951s-.793-.819-1.469-.268c-.479.39.092,1.772.092,1.772s-.917-.91-1.406-.5.167,2.052.167,2.052a1.175,1.175,0,0,0-1.151-.01c-.469.361.995,4.859,6.388,12.023" transform="translate(-726.452 -128.784)" fill="#f0ac75"/>
        <path id="Path_3635" data-name="Path 3635" d="M817.01,156.7" transform="translate(-753.206 -137.031)" fill="#ffe1ad"/>
        <path id="Path_3636" data-name="Path 3636" d="M815.7,153.7c1.17-.318,2.514.174,3.583-.4,1.791-.956,2.33-3.191,2.109-5.071-.352-3-3.626-5.043-6.427-5.277-6.693-.561-7.143,5.894-3.749,9.16" transform="translate(-750.881 -132.961)" fill="#ffe497"/>
        <path id="Path_3637" data-name="Path 3637" d="M813.51,239.514l19.6,53s-54,2.2-56.959.133c-5.317-22.883,11.641-34.661,13.657-52.539" transform="translate(-740.832 -161.498)" fill="#ffd55e"/>
        <path id="Path_3638" data-name="Path 3638" d="M780.885,181.164l-3.2,11.692s7.307,3.451,13.281,3.791c3.22-.058,7.077-12.59,5.233-15.006C789.568,181.525,780.885,181.164,780.885,181.164Z" transform="translate(-741.588 -144.259)" fill="#576bd8"/>
        <path id="Path_3639" data-name="Path 3639" d="M821.861,195.878s-2.452,17.055-3.437,26.585c-13.908,3.078-23.7.592-23.7.592l-2.968-32.5,8.6-8.725,8.754-.028Z" transform="translate(-745.746 -144.447)" fill="#576bd8"/>
        <path id="Path_3640" data-name="Path 3640" d="M815.261,181.809S819.6,181.121,827,187.2a29.872,29.872,0,0,1,6.99,8.3l-9.509,6.252-7.029-7.85" transform="translate(-752.69 -144.443)" fill="#576bd8"/>
        <path id="Path_3641" data-name="Path 3641" d="M802.353,159.354s-3.161,8.213-.791,10.716c1.232,1.3,5.505.578,7.115-.651,1.194-.912,2.771-6.377,2.127-7.408C808.345,158.074,802.353,159.354,802.353,159.354Z" transform="translate(-748.382 -137.757)" fill="#f0ac75"/>
        <path id="Path_3642" data-name="Path 3642" d="M812.5,169.7l-.773,8.337c-.64,2.037-5.868,3.4-6.893.279l.071-6.122Z" transform="translate(-749.609 -140.871)" fill="#f0ac75"/>
        <path id="Path_3643" data-name="Path 3643" d="M814.437,164.153a6.646,6.646,0,0,0,.338-2.405,9.346,9.346,0,0,0-.466-3.044,6.753,6.753,0,0,0-3.447-3.8c-1.588-.748-4.624-1.463-7.086-.008a4.565,4.565,0,0,0-3.521,1.077,3.509,3.509,0,0,0-1.067,3.441l7.02-.8a6.665,6.665,0,0,0,2.464,3.143c1.084.74,2.276,1.664,1.827,3.175-.187.63.494.747.494,1.966a6.036,6.036,0,0,0,3.415-2.666C814.418,164.2,814.428,164.179,814.437,164.153Z" transform="translate(-747.908 -136.249)" fill="#ffe497"/>
        <path id="Path_3644" data-name="Path 3644" d="M813.926,167.468c.746-1.153,1.447-1.047,1.876-.492.573.739-.273,2.467-.713,2.789-.891.654-1.661.667-1.807-.094" transform="translate(-752.105 -139.948)" fill="#f0ac75"/>
        <path id="Path_3645" data-name="Path 3645" d="M836.295,201.236c3.433,7.723-3.215,54.749-3.215,54.749l-6.072.772,2.349-50.182" transform="translate(-756.16 -150.189)" fill="#f0ac75"/>
        <g id="Group_640" data-name="Group 640" transform="translate(48.327 105.164)">
          <path id="Path_3646" data-name="Path 3646" d="M840.083,283.464h-.137v-2.578a2.84,2.84,0,0,0-2.84-2.84H822.551a2.84,2.84,0,0,0-2.84,2.84v2.578h-.152a.859.859,0,0,0-.859.859v1.624h4.384v-1.624a.859.859,0,0,0-.859-.859h-.367v-2.089a1.217,1.217,0,0,1,1.217-1.217h13.508a1.218,1.218,0,0,1,1.218,1.217v2.089h-.383a.859.859,0,0,0-.859.859v1.625h4.384v-1.625A.859.859,0,0,0,840.083,283.464Z" transform="translate(-802.033 -278.046)" fill="#816fc2"/>
          <g id="Group_639" data-name="Group 639" transform="translate(0 6.945)">
            <rect id="Rectangle_2057" data-name="Rectangle 2057" width="55.577" height="42.452" rx="11.724" transform="translate(0 0.331)" fill="#816fc2"/>
            <rect id="Rectangle_2058" data-name="Rectangle 2058" width="2.786" height="43.34" rx="1.187" transform="translate(8.869)" fill="#816fc2"/>
            <g id="Group_638" data-name="Group 638" transform="translate(31.079)">
              <rect id="Rectangle_2059" data-name="Rectangle 2059" width="2.786" height="43.34" rx="1.393" transform="translate(12.583)" fill="#816fc2"/>
              <g id="Group_637" data-name="Group 637" transform="translate(0 22.853)">
                <circle id="Ellipse_501" data-name="Ellipse 501" cx="2.87" cy="2.87" r="2.87" transform="translate(5.206 16.065) rotate(-78.734)" fill="#816fc2"/>
                <path id="Path_3647" data-name="Path 3647" d="M851.98,322.382l-5.414-2.042-.079,7.69,5.373-2.353-3.976-1.5Z" transform="translate(-841.321 -320.34)" fill="#816fc2"/>
                <rect id="Rectangle_2060" data-name="Rectangle 2060" width="4.176" height="3.5" transform="translate(0 10.024)" fill="#816fc2"/>
              </g>
            </g>
          </g>
        </g>
        <path id="Path_3648" data-name="Path 3648" d="M827.5,264.187c-.243,5.124-.661,10.368-.482,10.922a6.722,6.722,0,0,0,3.4,3.769,2.94,2.94,0,0,0,1.453.368,2.625,2.625,0,0,0,1.641-.749.378.378,0,0,0,.156-.294c-.031-.264-.423-.2-.685-.15a1.753,1.753,0,0,1-1.658-.673c.23.249.577.147.9.057a.569.569,0,0,0,.366-.794.749.749,0,0,0,1.184-.8.508.508,0,0,0,.607-.145,1.319,1.319,0,0,0,.256-.617,14.272,14.272,0,0,0,.213-2.984c-.012-3.128.392-9.436.392-9.436" transform="translate(-756.15 -168.337)" fill="#f0ac75"/>
      </g>
    </g>
  </g>
</svg>
