<svg xmlns="http://www.w3.org/2000/svg" width="350.133" height="280.112" viewBox="0 0 350.133 280.112">
  <g id="people" transform="translate(-223.968 -156.905)">
    <g id="guides" transform="translate(483.907 159.815)">
      <g id="Group_504" data-name="Group 504" transform="translate(2.299 108.089)">
        <path id="Path_3455" data-name="Path 3455" d="M520.457,440.306a3.633,3.633,0,0,1,2.148-.041c5.568,1.539,11.923,1.2,15.579.788a2.79,2.79,0,0,1,3.259,2.151l.629,6.912a.646.646,0,0,1-.706.565l-36.77-.193C503.834,450.484,520.457,440.306,520.457,440.306Z" transform="translate(-504.57 -286.439)" fill="#f5d98a"/>
        <path id="Path_3456" data-name="Path 3456" d="M570.888,277.633,578.229,419.9l-22.431-.038L544.185,275.677Z" transform="translate(-507.163 -275.677)" fill="#ffe1ad"/>
        <path id="Path_3457" data-name="Path 3457" d="M554.02,277.77l-15.53,83.9,3.112,58.348-21.333.017-3.759-64.962,5.627-77.3Z" transform="translate(-505.351 -275.814)" fill="#ffe1ad"/>
        <path id="Path_3458" data-name="Path 3458" d="M547.59,320.389l-8.039,43.431,3.075,58.373H540.2L533.214,372.3a46.954,46.954,0,0,1,1.271-19.448l11.872-42.2Z" transform="translate(-506.413 -277.966)" fill="#efcd9c"/>
        <path id="Path_3459" data-name="Path 3459" d="M564.819,450.739h13.063c2.591,0,4.314-2.326,3.237-4.372l-1.878-3.564A3.624,3.624,0,0,0,576,441H565.825a3.5,3.5,0,0,0-3.457,2.353l-1.006,3.565C560.813,448.861,562.51,450.739,564.819,450.739Z" transform="translate(-508.28 -286.497)" fill="#f5d98a"/>
      </g>
      <g id="Group_505" data-name="Group 505">
        <text id="Hotels" transform="translate(29.013 79.263) rotate(-6.974)" fill="#fff" font-size="10" font-family="Bauhaus93, 'Bauhaus 93'" letter-spacing="0.22em"><tspan x="0" y="0">Hotels</tspan></text>
        <path id="Path_3460" data-name="Path 3460" d="M541.427,189.075l.3,12.213a60.92,60.92,0,0,1,6.273.349c7.678.652,6.46-1.13,6.46-1.13l-1.576-18.2" transform="translate(-504.683 -161.477)" fill="#fce6d6"/>
        <path id="Path_3461" data-name="Path 3461" d="M547.5,202.086l5.229-.147,6.413-5.131-3.9-20.655s-5.315.287-5.3.836S547.5,202.086,547.5,202.086Z" transform="translate(-505.081 -161.074)" fill="#e9c563"/>
        <path id="Path_3462" data-name="Path 3462" d="M537.327,166.743c-3.947,10.636-5.379,19.856.723,22.473,6.431,2.759,13.268-.871,14.055-10.392C552.933,168.819,540.078,160.857,537.327,166.743Z" transform="translate(-504.192 -160.327)" fill="#fce6d6"/>
        <path id="Path_3463" data-name="Path 3463" d="M541.9,164.623s5.982,13.333,11.412,14.157c2.56.388-2.918,9.211-1.257,13.335s-2.81,8.66-2.427,8.66,13.413-4.4,13.413-4.4-4.726-9.585-4.854-14-3.1-23.069-15.28-22.334-8.99,21.9-9.5,23.69-5.109,14.02-5.109,14.02l13.594,2.44-1.944-11.625a12.3,12.3,0,0,1-1.223-.789c-2.5-2.259-5.329-8.3-3.018-12.982A90.553,90.553,0,0,1,541.9,164.623Z" transform="translate(-503.824 -160.018)" fill="#ffd869"/>
        <path id="Path_3464" data-name="Path 3464" d="M552.227,176.9" transform="translate(-505.39 -161.123)" fill="none" stroke="#ff855a" stroke-linejoin="round" stroke-width="0.75"/>
        <path id="Path_3465" data-name="Path 3465" d="M552.226,176.9l-.008.085" transform="translate(-505.389 -161.123)" fill="none" stroke="#ff855a" stroke-linejoin="round" stroke-width="0.75"/>
        <path id="Path_3466" data-name="Path 3466" d="M551.473,196.065c-3.11.684-1.97,1.681-6.953,1.6-4.144-.066-9.554-2.777-9.554-2.777-4.719,1.461-4.967,1.384-13.546,11.515-2.986,11,.325,44.68-.878,73.64,20.935,7.32,48.117-2.274,48.117-2.274s0-29.266-2.552-41.934c-1.879-9.326-2.221-18.271-6.37-26.095C559.664,204.949,551.473,196.065,551.473,196.065Z" transform="translate(-503.29 -162.301)" fill="#f593b7"/>
        <path id="Path_3467" data-name="Path 3467" d="M518.742,227.715l-1.675,26.7,6.722,1.068,4.824-27.977Z" transform="translate(-503.089 -164.435)" fill="#fce6d6"/>
        <path id="Path_3468" data-name="Path 3468" d="M535.827,195.06c-4.022-.752-4.707-2.338-10.03,1.288-10.123,6.9-9.27,37.141-9.27,37.141l12.644-2.827s1.267-18.593,1.5-22.5" transform="translate(-503.052 -162.246)" fill="#f593b7"/>
        <path id="Path_3469" data-name="Path 3469" d="M548.983,179.924a1.669,1.669,0,0,1,.853-1.506c1.328-.8,2.589.774,2.723,2.208a3.952,3.952,0,0,1-.539,2.467c-.608,1.07-1.615,1.5-2.427.514" transform="translate(-505.177 -161.208)" fill="#fce6d6"/>
        <path id="Path_3470" data-name="Path 3470" d="M519.34,292.979c7.257-.912,12.3-8.352,11.259-16.618s-7.764-14.229-15.021-13.315a12.168,12.168,0,0,0-7.68,4.192,1.854,1.854,0,0,1-3.232-1l-2.5-19.851a7.667,7.667,0,0,1,6.65-8.563l66.051-8.3a7.667,7.667,0,0,1,8.563,6.651l8.3,66.05a7.667,7.667,0,0,1-6.65,8.563L564.9,313.322a1.854,1.854,0,0,1-1.731-2.935,12.257,12.257,0,0,0,2.408-8.84c-.912-7.257-8.353-12.3-16.619-11.258s-14.228,7.763-13.316,15.021a12.254,12.254,0,0,0,4.521,7.968,1.854,1.854,0,0,1-.951,3.272l-20.182,2.537a7.668,7.668,0,0,1-8.563-6.651l-2.5-19.851a1.855,1.855,0,0,1,2.884-1.769A12.167,12.167,0,0,0,519.34,292.979Z" transform="translate(-502.11 -164.563)" fill="#649fcd" stroke="#fff" stroke-miterlimit="10" stroke-width="1"/>
        <path id="Path_3471" data-name="Path 3471" d="M575.188,228.838c0,7.431,1.685,16.355-2.418,24.363a111.821,111.821,0,0,1-17.338,24.877l-8.121-3.51s6.314-6.557,13.006-21.819c3.377-7.7,3.637-15.01,2.776-23.507" transform="translate(-505.068 -164.522)" fill="#fce6d6"/>
        <path id="Path_3472" data-name="Path 3472" d="M552.7,269.621c-1.767,3.227-8.941,11.833-8.5,12.433s2.863-2.4,3.125-1.844-3.126,5.4-2.508,5.883c.837.656,4.027-4.468,4.027-4.468s-3.2,5.768-2.287,6.139c.645.264,3.3-4.039,4.534-5.571-1.113,1.812-2.548,4.939-1.872,5.2s2.543-2.637,4.1-4.787c-.841,1.423-2.223,4.086-1.612,4.354s5.665-7.639,10.181-14.168" transform="translate(-504.864 -167.191)" fill="#fce6d6"/>
        <path id="Path_3473" data-name="Path 3473" d="M553.576,196.058c4.543-1.36,7.086-2.331,10.7.935,8.533,7.717,13.607,33.151,13.607,33.151l-13.9.565L552.268,200.04" transform="translate(-505.393 -162.294)" fill="#f593b7"/>
        <text id="Guides-2" data-name="Guides" transform="translate(7.919 90.928) rotate(-6.809)" fill="#e1f0fa" font-size="11" font-family="Impact" letter-spacing="0.22em"><tspan x="0" y="0">Guides</tspan></text>
        <path id="Path_3474" data-name="Path 3474" d="M555.446,208.728l7.833,20.506-7.833.971Z" transform="translate(-505.601 -163.206)" fill="#ff79aa"/>
      </g>
    </g>
    <g id="transport" transform="translate(392.646 156.905)">
      <path id="Path_3475" data-name="Path 3475" d="M462.345,180.856l1.919,13.274s-6.763,7.8-13.4.985l.348-8.956Z" transform="translate(-407.496 -158.472)" fill="#aa684b"/>
      <path id="Path_3476" data-name="Path 3476" d="M452.649,174.8c.24-3.537,2.952-2.593,4.008-1.469,1.409,1.5-.086,5.46-.982,6.259-1.816,1.618-3.5,1.806-3.975.171" transform="translate(-407.551 -157.913)" fill="#dc9c7b"/>
      <path id="Path_3477" data-name="Path 3477" d="M442.34,163.92s-5.288,17.958.789,22.495c3.16,2.359,7.237,2.742,10.264-.528,2.246-2.426,13-12.4,8.3-18.017C455.151,160.029,442.34,163.92,442.34,163.92Z" transform="translate(-406.798 -157.301)" fill="#aa684b"/>
      <path id="Path_3478" data-name="Path 3478" d="M444.469,160.35c-4,1.815-5.929,5.462-5.9,5.846.157,2,.633,2.752,2.691,3.419,2,.648,4.007-.765,6-.747,3.222.031,2.767,3.282,4.989,4.771,4.64,3.111,3.535,11.033,13.823,8.964a6.545,6.545,0,0,0,4.128-2.832h0c.684-1.063-.592-3.5-.7-4.7-.358-3.87-.678-8.048-2.762-11.339C462.121,156.441,457.4,154.481,444.469,160.35Z" transform="translate(-406.691 -156.905)" fill="#000000"/>
      <g id="Group_506" data-name="Group 506" transform="translate(28.282 34.431)">
        <path id="Path_3479" data-name="Path 3479" d="M469.67,193.747s9.211,5.133,12.645,23.582c1.528,8.205-1.409,52.339-1.411,52.3a121.491,121.491,0,0,1-44.783.523s-2.332-31.642-.976-42.478c3.128-25,7.888-33.62,7.888-33.62Z" transform="translate(-434.721 -193.747)" fill="#ffd55e"/>
      </g>
      <path id="Path_3481" data-name="Path 3481" d="M404.624,448.316a4.636,4.636,0,0,1,1.63-2.592l14.505-6.247a2.986,2.986,0,0,1,2.148-.054c5.566,1.893,11.922,1.461,15.578.953a2.878,2.878,0,0,1,3.256,2.652l.621,8.532a.7.7,0,0,1-.706.7l-36.77-.193C404.123,452.061,404.613,448.351,404.624,448.316Z" transform="translate(-404.459 -175.383)" fill="#8bafdf"/>
      <path id="Path_3482" data-name="Path 3482" d="M429.8,284.733s-14.039,54.987-11.974,72.128c2.3,19.086-.042,63.236-.042,63.236H443.3s1.835-56.173,2.736-70.547c.817-13.043,14.073-48.483,14.073-48.483s5.968-8.422,3.922-22.9" transform="translate(-405.32 -164.841)" fill="#988dce"/>
      <g id="Group_507" data-name="Group 507" transform="translate(36.105 266.946)">
        <path id="Path_3484" data-name="Path 3484" d="M443.276,451.473c.357-1.088,1.006-2.307,1.651-2.579l14.554-6.131a2.988,2.988,0,0,1,2.149-.036c5.551,1.937,11.91,1.556,15.57,1.078a2.879,2.879,0,0,1,3.235,2.677l.551,8.537a.7.7,0,0,1-.712.693l-36.767-.488C442.744,455.213,443.265,451.506,443.276,451.473Z" transform="translate(-443.092 -442.545)" fill="#8bafdf"/>
        <line id="Line_107" data-name="Line 107" x1="37.694" y1="0.501" transform="translate(0.014 10.14)" fill="#2e7efa"/>
      </g>
      <path id="Path_3485" data-name="Path 3485" d="M454.917,288.01s-3.939,53.258-.707,74.342c3.908,25.485,2.8,57.76,2.8,57.76l23.287.081s2.491-133.895.6-140.859" transform="translate(-407.631 -164.917)" fill="#988dce"/>
      <path id="Path_3486" data-name="Path 3486" d="M435.171,198.756c1.549-1.721,10.2.063,9.447,2.252-3.1,9.033-10.816,24.573-11.786,28.953-1.032,4.654,6.6,39.72-1.244,40.476-5.759.555-7.813-15.2-10.773-34.6C419.677,228.369,426.5,208.406,435.171,198.756Z" transform="translate(-405.521 -159.599)" fill="#aa684b"/>
      <path id="Path_3487" data-name="Path 3487" d="M449.983,323.693l-10.454,36.935-2.921,62.4H444.5l1.246-60.082Z" transform="translate(-406.55 -167.82)" fill="#726cb0"/>
      <path id="Path_3488" data-name="Path 3488" d="M500.515,266.327a11.325,11.325,0,0,0-7.647,1.635,1.731,1.731,0,0,1-2.607-1.742l2.706-18.195a7.158,7.158,0,0,0-6.027-8.133l-61.477-9.143a7.159,7.159,0,0,0-8.133,6.028L414.4,256.5a13.436,13.436,0,1,1-3.618,24.33l-2.592,17.428a7.159,7.159,0,0,0,6.028,8.133l18.807,2.8a1.732,1.732,0,0,1,.816,3.077,11.448,11.448,0,0,0-4.412,7.362c-1,6.755,4.419,13.158,12.112,14.3s14.745-3.4,15.75-10.158a11.453,11.453,0,0,0-2.078-8.328,1.732,1.732,0,0,1,1.676-2.706l18.807,2.8a7.158,7.158,0,0,0,8.133-6.027l2.706-18.2a1.732,1.732,0,0,1,3-.907,11.323,11.323,0,0,0,6.841,3.79c6.754,1,13.158-4.418,14.3-12.112S507.27,267.331,500.515,266.327Z" transform="translate(-404.698 -161.732)" fill="#f593b7" stroke="#fff" stroke-miterlimit="10" stroke-width="1"/>
      <g id="Group_508" data-name="Group 508" transform="translate(24.512 98.682)">
        <path id="Path_3489" data-name="Path 3489" d="M430.721,267.842a1.558,1.558,0,0,1,1.527-1.88c7.106.069,8.259-4.224,8.752-3.345.535.954-2.463,3.041-1.877,3.742s9.223-1.485,9.5-.39c.379,1.485-8.7,2.515-8.7,2.515s9.94-.607,9.9.777c-.031.98-7.331,1.417-10.1,1.934,3.072-.178,8.084.123,8.031,1.14s-4.952.478-8.739.989c2.393-.1,7.116-.378,7.11.564s-4.148.981-15.293.9Z" transform="translate(-430.687 -262.498)" fill="#aa684b"/>
      </g>
      <path id="Path_3490" data-name="Path 3490" d="M472.647,197.25c19.693,6.7,39.463,29.434,36.392,37.657-6.157,16.484-13.633,25.727-13.633,25.727L487.93,258s3.9-8.9,8.8-24.3c2.487-7.821-10.445-12.289-16.052-18.021" transform="translate(-408.921 -159.545)" fill="#aa684b"/>
      <path id="Path_3491" data-name="Path 3491" d="M490.126,257.445c-2.118,3.868-11.239,14.184-10.707,14.9s3.431-2.877,3.746-2.21-3.748,6.47-3.007,7.051c1,.788,4.828-5.354,4.828-5.354s-3.831,6.913-2.741,7.358c.772.316,3.954-4.842,5.433-6.677-1.335,2.172-3.053,5.92-2.244,6.232s3.049-3.161,4.92-5.737c-1.008,1.706-2.665,4.9-1.934,5.219S493.585,267.9,499,260.07" transform="translate(-409.363 -163.485)" fill="#aa684b"/>
      <path id="Path_3492" data-name="Path 3492" d="M455.923,176.424c.2-2.989,2.494-2.192,3.387-1.242,1.191,1.267-.073,4.614-.83,5.289-1.535,1.367-2.958,1.526-3.359.144" transform="translate(-407.774 -158.045)" fill="#aa684b"/>
      <text id="transport-2" data-name="transport" transform="translate(17.74 85.361) rotate(9.38)" fill="#e1f0fa" font-size="10" font-family="Impact" letter-spacing="0.22em"><tspan x="0" y="0">transport</tspan></text>
      <path id="Path_3493" data-name="Path 3493" d="M471.418,193.747s31.774,17.148,31.17,20.007-18.271,8.841-18.271,8.841l-22.883-18.342Z" transform="translate(-408.188 -159.316)" fill="#ffd55e"/>
      <path id="Path_3494" data-name="Path 3494" d="M437.817,223.43l-16.992-4.156s11.859-25.643,20.035-25.209C455.317,194.835,437.817,223.43,437.817,223.43Z" transform="translate(-405.53 -159.336)" fill="#ffd55e"/>
      <path id="Path_3495" data-name="Path 3495" d="M443.651,213.8s-3.977,9.21-6.54,10.917a7.517,7.517,0,0,0-3.078,5.108l4.359.9a3.716,3.716,0,0,0,4.4-2.976Z" transform="translate(-406.394 -160.629)" fill="#fecc3e"/>
      <path id="Path_3496" data-name="Path 3496" d="M481.392,224.344" transform="translate(-409.494 -161.318)" fill="#f4cf98"/>
      <path id="Path_3497" data-name="Path 3497" d="M452.086,188.962s5.773-1.8,6.437-3.588c.631-1.7,0,7.812,0,7.812h-6.2Z" transform="translate(-407.576 -158.755)" fill="#9b553d"/>
    </g>
    <g id="toures" transform="translate(223.968 163.372)">
      <path id="Path_3499" data-name="Path 3499" d="M303.318,448.316a4.631,4.631,0,0,0-1.63-2.592l-14.5-6.247a2.988,2.988,0,0,0-2.149-.054c-5.566,1.893-11.922,1.461-15.578.953a2.879,2.879,0,0,0-3.256,2.652l-.62,8.532a.7.7,0,0,0,.707.7l36.77-.193C303.82,452.061,303.33,448.351,303.318,448.316Z" transform="translate(-226.692 -181.851)" fill="#576bd8"/>
      <path id="Path_3500" data-name="Path 3500" d="M282.333,276.775s9.191,56.263,6.9,74.136c-2.556,19.9-2.092,68.639-2.092,68.639h-26.33s-.571-59.765-1.573-74.754c-.908-13.6-17.171-50.554-17.171-50.554s-6.638-8.781-4.363-23.879" transform="translate(-224.837 -170.798)" fill="#f5d98a"/>
      <g id="Group_509" data-name="Group 509" transform="translate(2.793 260.478)">
        <path id="Path_3502" data-name="Path 3502" d="M264.667,451.473c-.357-1.088-1.006-2.307-1.651-2.579l-14.554-6.131a2.988,2.988,0,0,0-2.149-.036c-5.55,1.937-11.91,1.556-15.57,1.078a2.879,2.879,0,0,0-3.235,2.677l-.551,8.537a.7.7,0,0,0,.712.693l36.767-.488C265.2,455.213,264.678,451.506,264.667,451.473Z" transform="translate(-226.957 -442.545)" fill="#576bd8"/>
        <line id="Line_108" data-name="Line 108" y1="0.501" x2="37.694" transform="translate(0.186 10.14)" fill="#988dce"/>
      </g>
      <path id="Path_3503" data-name="Path 3503" d="M255.83,287.6s1.963,53.467-1.242,74.464c-3.874,25.381-3.055,58.159-3.055,58.159l-23.143-.1s.343-133.86,2.222-140.794" transform="translate(-224.263 -171.385)" fill="#f5d98a"/>
      <g id="Group_510" data-name="Group 510" transform="translate(0.001 36.065)">
        <path id="Path_3504" data-name="Path 3504" d="M270.719,202.416s8.186,3.607,11.159,23.217c1.852,8.766,2.857,57.656,1.532,56.483a389.145,389.145,0,0,1-59.44,3.694s3.986-27.9,3.437-39.549c-1.785-37.849,17.539-42.477,17.539-42.477Z" transform="translate(-223.969 -202.416)" fill="#576bd8"/>
      </g>
      <path id="Path_3505" data-name="Path 3505" d="M287.941,216.967a140.693,140.693,0,0,1,9.846,25.93,94.3,94.3,0,0,1,1.281,38.793s-12.035,5.663-12.1-1.57c.128-8.439-.594-24.345-3.211-35.673-1.632-7.066-8-22.659-8-22.659" transform="translate(-227.358 -167.303)" fill="#dc9c7b"/>
      <path id="Path_3506" data-name="Path 3506" d="M260.788,211.673c4.245.727,7.411,6.832,14.714,14.079l16.442-1.925a2.04,2.04,0,0,0,1.421-3.221c-3.546-4.9-8.126-14.921-20.5-18.192" transform="translate(-226.378 -166.351)" fill="#576bd8"/>
      <path id="Path_3507" data-name="Path 3507" d="M253.58,193.685l-3.546,10.393s9.831,7.253,14.533.464l.145-7.363Z" transform="translate(-225.674 -165.78)" fill="#dc9c7b"/>
      <g id="Group_511" data-name="Group 511" transform="translate(18.597)">
        <path id="Path_3508" data-name="Path 3508" d="M248.49,185.562c-3.98-8.676-3.77-16.185,3.268-19.145s13.87-2.113,17.571,6.686,1.855,21.032-.94,22.769C261.9,199.9,250.989,191.009,248.49,185.562Z" transform="translate(-244 -163.894)" fill="#dc9c7b"/>
        <path id="Path_3509" data-name="Path 3509" d="M251.963,191.056l-.233-1.806s-3.938-4.741-2.643-6.348c1.858-2.306,3.345-.97,4.337-.337,4.574,2.916.992,9.945,3.232,11.78,5.215,4.27,10.547,2.934,12.6.485,4.023-4.8-3.378-2.433-2.82-5.277.424-2.159,5.97.414,5.258-2.433-.619-2.47-6.883,3.268-9.884,1.889-1.979-.91-4.929-4.623-5.712-12.466-.881-8.817,8.936-3.6,11.123-5.537,2.434-2.151.493-3.433-.663-4.326-1.935-1.494-13.917-6.257-19.8,1.318C237.992,179.286,251.963,191.056,251.963,191.056Z" transform="translate(-243.868 -163.825)" fill="#171743"/>
      </g>
      <g id="Path_3510" data-name="Path 3510" transform="translate(-224.531 -168.08)" fill="#988dce" stroke-miterlimit="10">
        <path d="M 272.3243408203125 329.6328735351563 C 268.5107727050781 329.6331787109375 264.9106140136719 328.3409729003906 262.18701171875 325.994384765625 C 259.4412536621094 323.6286010742188 257.8916931152344 320.4554748535156 257.8238220214844 317.0594787597656 C 257.762939453125 314.0345458984375 258.9180908203125 311.0712890625 261.0764770507813 308.7156677246094 C 261.4143371582031 308.3471069335938 261.49560546875 307.8534240722656 261.2939453125 307.3950500488281 C 261.1365966796875 307.0372924804688 260.7572631835938 306.6550598144531 260.1646423339844 306.6550598144531 C 260.1554870605469 306.6550598144531 260.1464538574219 306.6551513671875 260.1372375488281 306.6553344726563 L 241.126708984375 307.0356750488281 C 241.0744323730469 307.0367126464844 241.0221099853516 307.0372619628906 240.9700164794922 307.0372619628906 C 238.9571228027344 307.0372619628906 237.0556488037109 306.2608337402344 235.6158905029297 304.8510437011719 C 234.1741027832031 303.4392700195313 233.3580017089844 301.5505676269531 233.3179321289063 299.5328369140625 L 232.0749816894531 237.3916320800781 C 232.0338897705078 235.3467102050781 232.7917327880859 233.4081420898438 234.2089080810547 231.9330444335938 C 235.6260070800781 230.4580230712891 237.5326843261719 229.623046875 239.5777130126953 229.5819549560547 L 301.7190246582031 228.3390045166016 C 301.7706604003906 228.3379821777344 301.8226623535156 228.3374633789063 301.8739929199219 228.3374633789063 C 303.8873291015625 228.3374633789063 305.7892456054688 229.1139221191406 307.2294311523438 230.5238037109375 C 308.6716003417969 231.9356384277344 309.4881896972656 233.8245849609375 309.5287170410156 235.8426666259766 L 309.8960266113281 254.2347106933594 C 309.9115600585938 254.9970703125 310.5417785644531 255.4527435302734 311.14208984375 255.4527435302734 C 311.4307556152344 255.4527435302734 311.7026672363281 255.3482971191406 311.9283752441406 255.1507110595703 C 314.1156616210938 253.2354736328125 316.7393798828125 252.1941223144531 319.5158386230469 252.1392517089844 C 319.5932006835938 252.1377105712891 319.6712036132813 252.1369171142578 319.7484130859375 252.1369171142578 C 323.1483764648438 252.1369171142578 326.3613586425781 253.6281433105469 328.7955017089844 256.3359069824219 C 331.2164611816406 259.0290222167969 332.5921936035156 262.6253356933594 332.6692199707031 266.4623718261719 C 332.7466735839844 270.3453369140625 331.4896850585938 274.0252380371094 329.1298217773438 276.8243408203125 C 326.7541809082031 279.6421813964844 323.5470581054688 281.2319946289063 320.0992431640625 281.3009033203125 C 320.0217895507813 281.3024597167969 319.9442749023438 281.30322265625 319.8670654296875 281.30322265625 C 317.1752624511719 281.3032531738281 314.5921325683594 280.36669921875 312.3969421386719 278.5948181152344 C 312.1771850585938 278.4173889160156 311.9179992675781 278.3236389160156 311.6473693847656 278.3236389160156 C 311.3147583007813 278.3236389160156 310.9878234863281 278.4625244140625 310.7503967285156 278.7046813964844 C 310.5874328613281 278.8709411621094 310.3949279785156 279.1598510742188 310.4034729003906 279.5921020507813 L 310.7716979980469 297.9839782714844 C 310.8555297851563 302.2059020996094 307.4893493652344 305.7088623046875 303.2679138183594 305.7927551269531 L 284.2572937011719 306.1730651855469 C 283.6561889648438 306.1852722167969 283.283935546875 306.5803833007813 283.1360473632813 306.9460754394531 C 282.9461364746094 307.4157104492188 283.0455932617188 307.910400390625 283.402099609375 308.2694091796875 C 285.6529541015625 310.5373840332031 286.9255065917969 313.4518432617188 286.9854431152344 316.4760437011719 C 287.0543518066406 319.9241638183594 285.5940856933594 323.1925659179688 282.8735961914063 325.6791076660156 C 280.1712036132813 328.1490783691406 276.5447387695313 329.5520324707031 272.6622619628906 329.6294860839844 C 272.550537109375 329.6317443847656 272.4368286132813 329.6328735351563 272.3243408203125 329.6328735351563 Z" stroke="none"/>
        <path d="M 301.8740234375 228.8374633789063 C 301.8259887695313 228.8374633789063 301.7772827148438 228.8379516601563 301.7290344238281 228.8388977050781 L 239.5877685546875 230.0818481445313 C 235.6355590820313 230.1612854003906 232.4954528808594 233.429443359375 232.5748901367188 237.3816528320313 L 233.8178405761719 299.5228881835938 C 233.8953857421875 303.4261474609375 237.0838623046875 306.5372314453125 240.9700012207031 306.5372314453125 C 241.0187377929688 306.5372314453125 241.0677185058594 306.5367431640625 241.11669921875 306.5357666015625 L 260.1274108886719 306.1554260253906 C 260.1399536132813 306.1551818847656 260.1521911621094 306.1550598144531 260.1646423339844 306.1550598144531 C 261.6620483398438 306.1550598144531 262.4646301269531 307.9412536621094 261.4451293945313 309.053466796875 C 259.4404907226563 311.2412719726563 258.2629699707031 314.0309143066406 258.32373046875 317.0494995117188 C 258.458251953125 323.7805786132813 264.6947937011719 329.1328735351563 272.3243103027344 329.1328735351563 C 272.4329223632813 329.1328735351563 272.5430908203125 329.1317749023438 272.6522827148438 329.1295776367188 C 280.4287109375 328.9744262695313 286.6220092773438 323.3138122558594 286.4855346679688 316.4859619140625 C 286.4257202148438 313.4673767089844 285.136962890625 310.7272338867188 283.0473327636719 308.6217346191406 C 281.9744567871094 307.5413818359375 282.725830078125 305.7040405273438 284.2472839355469 305.6731567382813 L 303.2579650878906 305.2928466796875 C 307.210205078125 305.2143249511719 310.3502807617188 301.9461975097656 310.2717895507813 297.9939880371094 L 309.903564453125 279.6019897460938 C 309.8829040527344 278.5564880371094 310.7402038574219 277.8236389160156 311.6473388671875 277.8236389160156 C 312.01171875 277.8236389160156 312.3842468261719 277.9419555664063 312.7109680175781 278.2057495117188 C 314.7386779785156 279.8424377441406 317.2086181640625 280.80322265625 319.8670959472656 280.80322265625 C 319.9409790039063 280.80322265625 320.0151062011719 280.802490234375 320.0892639160156 280.8009948730469 C 326.9161987304688 280.66455078125 332.3244323730469 274.2497863769531 332.1693115234375 266.472412109375 C 332.014892578125 258.7804565429688 326.4756469726563 252.6365356445313 319.7484436035156 252.6369323730469 C 319.674560546875 252.6369323730469 319.5999145507813 252.6376647949219 319.5257263183594 252.63916015625 C 316.7828063964844 252.693359375 314.2716979980469 253.763427734375 312.2577209472656 255.5269165039063 C 311.9219970703125 255.8208312988281 311.5282592773438 255.9527282714844 311.14208984375 255.9527282714844 C 310.259765625 255.9527282714844 309.4169311523438 255.2639770507813 309.3961181640625 254.2446899414063 L 309.0288391113281 235.8527221679688 C 308.9503784179688 231.9487609863281 305.7611083984375 228.8374633789063 301.8740234375 228.8374633789063 M 301.8740234375 227.8374633789063 C 304.0188903808594 227.8374633789063 306.0450439453125 228.6645812988281 307.5792236328125 230.16650390625 C 309.1155395507813 231.6705627441406 309.9854125976563 233.6828002929688 310.0286254882813 235.8326110839844 L 310.3959045410156 254.2247314453125 C 310.4052124023438 254.6802673339844 310.7825927734375 254.9527282714844 311.14208984375 254.9527282714844 C 311.3102111816406 254.9527282714844 311.4639282226563 254.8927612304688 311.5990600585938 254.7744750976563 C 313.8760070800781 252.7807312011719 316.6101989746094 251.6965942382813 319.5059814453125 251.6393737792969 C 319.58642578125 251.6377258300781 319.667724609375 251.6369323730469 319.7482299804688 251.6369323730469 C 323.2920532226563 251.63671875 326.6370849609375 253.186767578125 329.1673583984375 256.0015258789063 C 331.6685180664063 258.7838745117188 333.0896606445313 262.495361328125 333.1691284179688 266.4523620605469 C 333.2489624023438 270.4567565917969 331.9502563476563 274.2546997070313 329.5121154785156 277.1466369628906 C 328.3157043457031 278.5657043457031 326.9088745117188 279.690673828125 325.3306884765625 280.4903259277344 C 323.6862487792969 281.3235168457031 321.9295043945313 281.764404296875 320.1092529296875 281.80078125 C 320.0285034179688 281.8024291992188 319.9476623535156 281.80322265625 319.8670959472656 281.80322265625 C 317.0596618652344 281.80322265625 314.367919921875 280.8283081054688 312.0828857421875 278.98388671875 C 311.9511413574219 278.8775329589844 311.8046569824219 278.8236389160156 311.6473388671875 278.8236389160156 C 311.4511413574219 278.8236389160156 311.2493286132813 278.9100341796875 311.107421875 279.0547485351563 C 311.0115051269531 279.1525573730469 310.8982543945313 279.3235168457031 310.9033508300781 279.5822448730469 L 311.2716064453125 297.9739685058594 C 311.3609008789063 302.4716186523438 307.7749328613281 306.2033081054688 303.27783203125 306.2926635742188 L 284.2672729492188 306.6729736328125 C 283.8168640136719 306.68212890625 283.642333984375 307.02783203125 283.5995788574219 307.133544921875 C 283.5455627441406 307.26708984375 283.4527587890625 307.61083984375 283.7568664550781 307.9170837402344 C 286.0988159179688 310.2768249511719 287.4228515625 313.3128662109375 287.4853210449219 316.4661865234375 C 287.5216979980469 318.2864379882813 287.1513977050781 320.0595703125 286.3846130371094 321.7361145019531 C 285.6487426757813 323.3451538085938 284.5809326171875 324.7959594726563 283.2109069824219 326.0481567382813 C 280.4188537597656 328.60009765625 276.6761474609375 330.0494995117188 272.6722412109375 330.12939453125 C 272.5564575195313 330.1317138671875 272.4393920898438 330.1328735351563 272.3243103027344 330.1328735351563 C 268.3909301757813 330.1328735351563 264.6748657226563 328.7975463867188 261.8606567382813 326.3729553222656 C 259.005859375 323.913330078125 257.3946533203125 320.6092834472656 257.3239135742188 317.0694885253906 C 257.2604370117188 313.9154968261719 258.4622192382813 310.8287353515625 260.7078247070313 308.3778991699219 C 260.995849609375 308.0636901855469 260.8935852050781 307.7266845703125 260.8362731933594 307.5963745117188 C 260.7907409667969 307.4928588867188 260.6076965332031 307.1550598144531 260.1646423339844 307.1550598144531 L 260.1470336914063 307.1552124023438 L 241.1366882324219 307.5355834960938 C 241.0811157226563 307.5366821289063 241.0254211425781 307.5372314453125 240.9700012207031 307.5372314453125 C 238.8255310058594 307.5372314453125 236.7998352050781 306.7101440429688 235.2660522460938 305.2083129882813 C 233.7301330566406 303.704345703125 232.8607482910156 301.6922607421875 232.8180236816406 299.5427551269531 L 231.5750732421875 237.4016418457031 C 231.4847106933594 232.9046630859375 235.0701599121094 229.1724548339844 239.5676879882813 229.08203125 L 301.7090454101563 227.839111328125 C 301.7640991210938 227.8380126953125 301.8194274902344 227.8374633789063 301.8740234375 227.8374633789063 Z" stroke="none" fill="#fff"/>
      </g>
      <text id="Tours" transform="matrix(1, -0.018, 0.018, 1, 30.092, 79.496)" fill="#e1f0fa" font-size="12" font-family="Impact" letter-spacing="0.22em"><tspan x="0" y="0">Tours</tspan></text>
      <g id="Group_512" data-name="Group 512" transform="translate(3.438 60.758)">
        <path id="Path_3511" data-name="Path 3511" d="M227.647,228.838c0,8.43,4.256,22.483,11.027,31.865,8.879,12.3,24.221,21.563,24.221,21.563s9.341-3.162,5.028-7.456c-5.8-4.891-14.527-15.66-20.262-23.586-4.263-5.893-8.222-19.912-8.222-19.912" transform="translate(-227.647 -228.838)" fill="#dc9c7b"/>
        <path id="Path_3512" data-name="Path 3512" d="M267.23,275.506c5.042,5.916,13.934,7.682,13.7,8.609s-3.388.45-3.436,1.248,6.743,4.591,6.262,5.455c-.65,1.17-7.028-3.624-7.028-3.624s6.67,5.579,5.812,6.432c-.607.6-5.5-3.5-7.566-4.834,2.055,1.73,5.054,4.929,4.41,5.542s-3.428-2.668-6.137-4.616c1.577,1.374,4.741,4.029,4.172,4.623s-9.74-7.232-18.064-12.391" transform="translate(-229.722 -231.892)" fill="#dc9c7b"/>
      </g>
      <path id="Path_3513" data-name="Path 3513" d="M225.9,232.032c4.245.13,12.224-.168,15.665-.312a2.056,2.056,0,0,0,1.939-1.692l2.964-16.512q.01-.055.022-.109l1.836-7.782a2.052,2.052,0,0,0-1.837-2.524c-3.581-.252-10.38.027-14.355,5.034a2.124,2.124,0,0,0-.319.57,80.265,80.265,0,0,0-7.78,20.541A2.128,2.128,0,0,0,225.9,232.032Z" transform="translate(-223.968 -166.392)" fill="#576bd8"/>
      <path id="Path_3514" data-name="Path 3514" d="M259.356,336.157s2.218,15.109,2.74,26.628.088,61.079.088,61.079H271S267.561,348.107,259.356,336.157Z" transform="translate(-226.284 -175.104)" fill="#fcc777"/>
    </g>
    <g id="Group_1236" data-name="Group 1236" transform="translate(-964.163 48.097)">
      <g id="Group_503" data-name="Group 503" transform="translate(1289.256 221.763)">
        <path id="Path_3435" data-name="Path 3435" d="M388,281.486l-2.679,138.537H369.391L361.05,281.486Z" transform="translate(-334.064 -278.013)" fill="#6ed5e9"/>
        <path id="Path_3436" data-name="Path 3436" d="M362.525,277.77,354.885,419.78H338.467L332.174,277.77Z" transform="translate(-332.174 -277.77)" fill="#6ed5e9"/>
        <path id="Path_3437" data-name="Path 3437" d="M339.717,452.286h15.455c1.977,0,3.29-1.775,2.468-3.334l-2.648-5.031a2.766,2.766,0,0,0-2.469-1.377H341.136a2.669,2.669,0,0,0-2.636,1.8l-1.42,5.031A2.456,2.456,0,0,0,339.717,452.286Z" transform="translate(-332.49 -288.553)" fill="#f37676"/>
        <path id="Path_3438" data-name="Path 3438" d="M370.378,452.286H383.44c2.592,0,4.314-2.327,3.237-4.372l-1.878-3.565a3.626,3.626,0,0,0-3.237-1.8H371.383a3.5,3.5,0,0,0-3.457,2.354l-1.007,3.564C366.371,450.408,368.069,452.286,370.378,452.286Z" transform="translate(-334.441 -288.553)" fill="#f37676"/>
        <path id="Path_3439" data-name="Path 3439" d="M362.982,313.571l6.535,108.553h4.531Z" transform="translate(-334.19 -280.113)" fill="#5acbe1"/>
        <path id="Path_3440" data-name="Path 3440" d="M362.207,313.571l-6.535,108.553H351.14Z" transform="translate(-333.415 -280.113)" fill="#5acbe1"/>
      </g>
      <text id="Hotels-2" data-name="Hotels" transform="translate(1308.467 196.098) rotate(-6.974)" fill="#fff" font-size="10" font-family="Bauhaus93, 'Bauhaus 93'" letter-spacing="0.22em"><tspan x="0" y="0">Hotels</tspan></text>
      <path id="Path_3441" data-name="Path 3441" d="M370.972,196.772s-1.973,2.589,11.664,1.735c0,0-1.065-13.259-1.993-15.82s-6.99-1.588-6.99-1.588-4.294,12.51-3.6,15.426,10.17,2.106,12.586,1.982c.2-6.367-1.921-15.3-1.921-15.3" transform="translate(954.607 -49.668)" fill="#796843"/>
      <path id="Path_3442" data-name="Path 3442" d="M371.136,197.674l-2.5,12.709a57.451,57.451,0,0,0-5.848-.933c-7.2-.932-5.726-2.33-5.726-2.33l5.088-16.457" transform="translate(955.461 -50.306)" fill="#ffd1b8"/>
      <path id="Path_3443" data-name="Path 3443" d="M376.845,184.718c.064,7.468-1.27,13.318-6.2,12.939-5.193-.4-9.052-4.67-7.191-10.494C365.413,181.041,376.412,180.407,376.845,184.718Z" transform="translate(955.065 -49.735)" fill="#ffd1b8"/>
      <path id="Path_3444" data-name="Path 3444" d="M363.767,186.505" transform="translate(955.014 -50.034)" fill="none" stroke="#ff855a" stroke-linejoin="round" stroke-width="0.75"/>
      <path id="Path_3445" data-name="Path 3445" d="M363.767,186.5l.007.08" transform="translate(955.014 -50.034)" fill="none" stroke="#ff855a" stroke-linejoin="round" stroke-width="0.75"/>
      <path id="Path_3446" data-name="Path 3446" d="M368.746,182.351c5.079,1.344,8.673,1.158,12.017-.081-.538-3.035-2.394-7.372-8.054-7.5a9.789,9.789,0,0,0-9.783-1.921,12.644,12.644,0,0,0-7.253,6.072c-2.867,4.83-4.893,11.5-4.84,15.558,4.417,1.208,9.542,2.5,12.39,2.658C363.1,197.146,364.966,185,368.746,182.351Z" transform="translate(955.86 -49.104)" fill="#796843"/>
      <path id="Path_3447" data-name="Path 3447" d="M366.586,189.36a1.575,1.575,0,0,0-.8-1.42c-1.251-.753-2.44.73-2.567,2.082a3.723,3.723,0,0,0,.508,2.326c.573,1.009,1.522,1.411,2.288.485" transform="translate(955.052 -50.114)" fill="#ffd1b8"/>
      <path id="Path_3448" data-name="Path 3448" d="M369.783,204.9c-2.932.645-1.857,1.585-6.554,1.51a9.36,9.36,0,0,1-6.348-2.792c-4.449,1.378-7.341,1.478-15.429,11.029-2.815,10.373-7.354,44.948-8.488,72.249,19.736,6.9,53.022-4.971,53.022-4.971s0-27.59-2.406-39.532c-1.772-8.792-2.094-17.225-6-24.6C377.5,213.281,369.783,204.9,369.783,204.9Z" transform="translate(957.03 -51.154)" fill="#f37676"/>
      <path id="Path_3449" data-name="Path 3449" d="M330.307,229.908v26.1l8.485.629,3.835-27.534Z" transform="translate(957.204 -52.822)" fill="#ffd1b8"/>
      <path id="Path_3450" data-name="Path 3450" d="M355.53,203.88c-5.008,0-11.88,2.83-16.529,6.377-8.842,6.746-10.946,17.822-10.946,17.822l20.521,2.654s.878-10.76,1.008-14.446" transform="translate(957.352 -51.171)" fill="#f37676"/>
      <path id="Path_3451" data-name="Path 3451" d="M419.079,273.187c-.051-7.875-5.844-14.221-12.937-14.174a11.931,11.931,0,0,0-7.37,2.655l.2-20.806a7.424,7.424,0,0,0-7.352-7.5l-64.469-.634a7.424,7.424,0,0,0-7.5,7.351l-.191,19.376a1.8,1.8,0,0,0,2.971,1.38,11.787,11.787,0,0,1,7.917-3.024c7.084.07,12.761,6.667,12.682,14.735s-5.886,14.553-12.969,14.483a11.787,11.787,0,0,1-7.856-3.178,1.8,1.8,0,0,0-3,1.321l-.19,19.376a7.424,7.424,0,0,0,7.351,7.5l19.7.193a1.8,1.8,0,0,0,1.339-3.017,11.869,11.869,0,0,1-3.3-8.235c.07-7.083,6.667-12.761,14.735-12.682s14.553,5.886,14.483,12.969a11.866,11.866,0,0,1-3.462,8.169,1.8,1.8,0,0,0,1.279,3.042l19.7.194a7.425,7.425,0,0,0,7.5-7.352l.2-20.67a11.977,11.977,0,0,0,7.783,2.868C413.422,287.483,419.132,281.061,419.079,273.187Z" transform="translate(957.942 -53.059)" fill="#576bd8" stroke="#fff" stroke-miterlimit="10" stroke-width="1"/>
      <path id="Path_3452" data-name="Path 3452" d="M396.452,232.192c0,7.249,1.643,15.955-2.359,23.767a109.089,109.089,0,0,1-16.914,24.269l-8.315-3.156s6.552-6.665,13.08-21.554c3.3-7.516,3.549-14.644,2.707-22.932" transform="translate(954.681 -53.024)" fill="#ffd1b8"/>
      <path id="Path_3453" data-name="Path 3453" d="M375.123,270.826c-1.766,3.228-9.376,11.834-8.933,12.433s2.863-2.4,3.126-1.844-3.127,5.4-2.509,5.883c.837.656,4.027-4.467,4.027-4.467s-3.2,5.767-2.286,6.138c.644.264,3.3-4.039,4.533-5.57-1.113,1.811-2.547,4.938-1.872,5.2s2.543-2.636,4.105-4.787c-.842,1.423-2.224,4.086-1.613,4.354s5.337-7.583,9.854-14.113" transform="translate(954.856 -55.552)" fill="#ffd1b8"/>
      <path id="Path_3454" data-name="Path 3454" d="M372.275,204.994c4.286-.177,11.584,4.617,14.989,7.7,8.045,7.275,11.706,18.535,11.706,18.535l-16.884,6.437-11.045-28.912" transform="translate(954.538 -51.244)" fill="#f37676"/>
      <text id="Hotels-3" data-name="Hotels" transform="translate(1284.515 194.756) rotate(-0.067)" fill="#e1f0fa" font-size="12" font-family="Impact" letter-spacing="0.22em"><tspan x="0" y="0">Hotels</tspan></text>
    </g>
  </g>
</svg>
